<mxfile host="Electron" agent="Mozilla/5.0 (X11; Linux x86_64) AppleWebKit/537.36 (KHTML, like Gecko) draw.io/28.0.6 Chrome/138.0.7204.185 Electron/37.2.6 Safari/537.36" version="28.0.6">
  <diagram name="Page-1" id="QNtcoWRYU7GwBWOjYg5Z">
    <mxGraphModel dx="983" dy="579" grid="1" gridSize="10" guides="1" tooltips="1" connect="1" arrows="1" fold="1" page="1" pageScale="1" pageWidth="850" pageHeight="1100" math="0" shadow="0">
      <root>
        <mxCell id="0" />
        <mxCell id="1" parent="0" />
        <mxCell id="kkkl5rw_G0uq3lylavK_-32" value="" style="rounded=0;whiteSpace=wrap;html=1;fillColor=#FFFFFF;strokeColor=#d3d3d3;strokeWidth=2;fontColor=#000000;" vertex="1" parent="1">
          <mxGeometry x="158" y="50" width="532" height="470" as="geometry" />
        </mxCell>
        <mxCell id="kkkl5rw_G0uq3lylavK_-1" value="" style="shape=mxgraph.cisco.computers_and_peripherals.pc;html=1;pointerEvents=1;dashed=0;fillColor=#036897;strokeColor=#000000;strokeWidth=2;verticalLabelPosition=bottom;verticalAlign=top;align=center;outlineConnect=0;perimeterSpacing=2;" vertex="1" parent="1">
          <mxGeometry x="570" y="370" width="78" height="70" as="geometry" />
        </mxCell>
        <mxCell id="kkkl5rw_G0uq3lylavK_-2" value="" style="shape=mxgraph.cisco.computers_and_peripherals.pc;html=1;pointerEvents=1;dashed=0;fillColor=#036897;strokeColor=#000000;strokeWidth=2;verticalLabelPosition=bottom;verticalAlign=top;align=center;outlineConnect=0;gradientColor=none;shadow=0;perimeterSpacing=2;" vertex="1" parent="1">
          <mxGeometry x="386" y="130" width="78" height="70" as="geometry" />
        </mxCell>
        <mxCell id="kkkl5rw_G0uq3lylavK_-3" value="" style="shape=mxgraph.cisco.computers_and_peripherals.pc;html=1;pointerEvents=1;dashed=0;fillColor=#036897;strokeColor=#000000;strokeWidth=2;verticalLabelPosition=bottom;verticalAlign=top;align=center;outlineConnect=0;perimeterSpacing=2;" vertex="1" parent="1">
          <mxGeometry x="190" y="370" width="78" height="70" as="geometry" />
        </mxCell>
        <mxCell id="kkkl5rw_G0uq3lylavK_-4" value="" style="endArrow=none;html=1;rounded=0;entryX=0.02;entryY=1;entryDx=0;entryDy=0;entryPerimeter=0;strokeColor=#000000;" edge="1" parent="1" source="kkkl5rw_G0uq3lylavK_-3" target="kkkl5rw_G0uq3lylavK_-2">
          <mxGeometry width="50" height="50" relative="1" as="geometry">
            <mxPoint x="700" y="460" as="sourcePoint" />
            <mxPoint x="750" y="410" as="targetPoint" />
          </mxGeometry>
        </mxCell>
        <mxCell id="kkkl5rw_G0uq3lylavK_-5" value="" style="endArrow=none;html=1;rounded=0;strokeColor=#000000;" edge="1" parent="1" source="kkkl5rw_G0uq3lylavK_-3" target="kkkl5rw_G0uq3lylavK_-1">
          <mxGeometry width="50" height="50" relative="1" as="geometry">
            <mxPoint x="410" y="460" as="sourcePoint" />
            <mxPoint x="542" y="290" as="targetPoint" />
          </mxGeometry>
        </mxCell>
        <mxCell id="kkkl5rw_G0uq3lylavK_-6" value="" style="endArrow=none;html=1;rounded=0;entryX=0.86;entryY=0.85;entryDx=0;entryDy=0;entryPerimeter=0;strokeColor=#000000;" edge="1" parent="1" source="kkkl5rw_G0uq3lylavK_-1" target="kkkl5rw_G0uq3lylavK_-2">
          <mxGeometry width="50" height="50" relative="1" as="geometry">
            <mxPoint x="530" y="420" as="sourcePoint" />
            <mxPoint x="662" y="250" as="targetPoint" />
          </mxGeometry>
        </mxCell>
        <mxCell id="kkkl5rw_G0uq3lylavK_-8" value="&lt;font style=&quot;font-size: 11px;&quot;&gt;lo: 10.0.1.1/24&lt;/font&gt;" style="shape=process;whiteSpace=wrap;html=1;backgroundOutline=1;strokeColor=#000000;fontColor=#000000;fillColor=none;" vertex="1" parent="1">
          <mxGeometry x="179.5" y="470" width="99" height="40" as="geometry" />
        </mxCell>
        <mxCell id="kkkl5rw_G0uq3lylavK_-9" value="&lt;font style=&quot;font-size: 11px;&quot;&gt;lo: 10.0.3.3/24&lt;/font&gt;" style="shape=process;whiteSpace=wrap;html=1;backgroundOutline=1;strokeColor=#000000;fontColor=#000000;fillColor=none;" vertex="1" parent="1">
          <mxGeometry x="559.5" y="470" width="99" height="40" as="geometry" />
        </mxCell>
        <mxCell id="kkkl5rw_G0uq3lylavK_-10" value="&lt;font style=&quot;font-size: 11px;&quot;&gt;lo: 10.0.2.2/24&lt;/font&gt;" style="shape=process;whiteSpace=wrap;html=1;backgroundOutline=1;strokeColor=#000000;fontColor=#000000;fillColor=none;" vertex="1" parent="1">
          <mxGeometry x="376" y="60" width="99" height="40" as="geometry" />
        </mxCell>
        <mxCell id="kkkl5rw_G0uq3lylavK_-11" value="" style="endArrow=none;dashed=1;html=1;rounded=0;exitX=0.5;exitY=0;exitDx=0;exitDy=0;entryX=0.5;entryY=1;entryDx=0;entryDy=0;entryPerimeter=0;strokeColor=#000000;" edge="1" parent="1" source="kkkl5rw_G0uq3lylavK_-9" target="kkkl5rw_G0uq3lylavK_-1">
          <mxGeometry width="50" height="50" relative="1" as="geometry">
            <mxPoint x="700" y="460" as="sourcePoint" />
            <mxPoint x="750" y="410" as="targetPoint" />
          </mxGeometry>
        </mxCell>
        <mxCell id="kkkl5rw_G0uq3lylavK_-12" value="" style="endArrow=none;dashed=1;html=1;rounded=0;exitX=0.5;exitY=0;exitDx=0;exitDy=0;entryX=0.5;entryY=1;entryDx=0;entryDy=0;entryPerimeter=0;strokeColor=#000000;" edge="1" parent="1" source="kkkl5rw_G0uq3lylavK_-8" target="kkkl5rw_G0uq3lylavK_-3">
          <mxGeometry width="50" height="50" relative="1" as="geometry">
            <mxPoint x="450" y="510" as="sourcePoint" />
            <mxPoint x="450" y="480" as="targetPoint" />
          </mxGeometry>
        </mxCell>
        <mxCell id="kkkl5rw_G0uq3lylavK_-13" value="" style="endArrow=none;dashed=1;html=1;rounded=0;exitX=0.5;exitY=0;exitDx=0;exitDy=0;entryX=0.5;entryY=1;entryDx=0;entryDy=0;exitPerimeter=0;strokeColor=#000000;" edge="1" parent="1" source="kkkl5rw_G0uq3lylavK_-2" target="kkkl5rw_G0uq3lylavK_-10">
          <mxGeometry width="50" height="50" relative="1" as="geometry">
            <mxPoint x="620" y="260" as="sourcePoint" />
            <mxPoint x="620" y="230" as="targetPoint" />
          </mxGeometry>
        </mxCell>
        <mxCell id="kkkl5rw_G0uq3lylavK_-14" value="eth1" style="rounded=0;whiteSpace=wrap;html=1;dashed=1;dashPattern=8 8;strokeColor=#000000;fontColor=#000000;fillColor=none;" vertex="1" parent="1">
          <mxGeometry x="220" y="330" width="40" height="30" as="geometry" />
        </mxCell>
        <mxCell id="kkkl5rw_G0uq3lylavK_-15" value="eth1" style="rounded=0;whiteSpace=wrap;html=1;dashed=1;dashPattern=8 8;strokeColor=#000000;fontColor=#000000;fillColor=none;" vertex="1" parent="1">
          <mxGeometry x="464" y="160" width="40" height="30" as="geometry" />
        </mxCell>
        <mxCell id="kkkl5rw_G0uq3lylavK_-16" value="eth1" style="rounded=0;whiteSpace=wrap;html=1;dashed=1;dashPattern=8 8;strokeColor=#000000;fontColor=#000000;fillColor=none;" vertex="1" parent="1">
          <mxGeometry x="519.5" y="410" width="40" height="30" as="geometry" />
        </mxCell>
        <mxCell id="kkkl5rw_G0uq3lylavK_-17" value="eth2" style="rounded=0;whiteSpace=wrap;html=1;dashed=1;dashPattern=8 8;strokeColor=#000000;fontColor=#000000;fillColor=none;" vertex="1" parent="1">
          <mxGeometry x="268" y="410" width="40" height="30" as="geometry" />
        </mxCell>
        <mxCell id="kkkl5rw_G0uq3lylavK_-19" value="eth2" style="rounded=0;whiteSpace=wrap;html=1;dashed=1;dashPattern=8 8;strokeColor=#000000;fontColor=#000000;fillColor=none;" vertex="1" parent="1">
          <mxGeometry x="340" y="160" width="40" height="30" as="geometry" />
        </mxCell>
        <mxCell id="kkkl5rw_G0uq3lylavK_-20" value="eth2" style="rounded=0;whiteSpace=wrap;html=1;dashed=1;dashPattern=8 8;strokeColor=#000000;fontColor=#000000;fillColor=none;" vertex="1" parent="1">
          <mxGeometry x="589" y="330" width="40" height="30" as="geometry" />
        </mxCell>
        <mxCell id="kkkl5rw_G0uq3lylavK_-21" value="10.0.12.0/24" style="text;html=1;align=center;verticalAlign=middle;whiteSpace=wrap;rounded=0;rotation=-50;strokeColor=none;fontColor=#000000;fillColor=none;" vertex="1" parent="1">
          <mxGeometry x="278.5" y="260" width="80" height="30" as="geometry" />
        </mxCell>
        <mxCell id="kkkl5rw_G0uq3lylavK_-23" value="10.0.23.0/24" style="text;html=1;align=center;verticalAlign=middle;whiteSpace=wrap;rounded=0;rotation=50;strokeColor=none;fontColor=#000000;fillColor=none;" vertex="1" parent="1">
          <mxGeometry x="490.00217103424626" y="260.0035918700572" width="80" height="30" as="geometry" />
        </mxCell>
        <mxCell id="kkkl5rw_G0uq3lylavK_-24" value="10.0.31.0/24" style="text;html=1;align=center;verticalAlign=middle;whiteSpace=wrap;rounded=0;rotation=0;strokeColor=none;fontColor=#000000;fillColor=none;" vertex="1" parent="1">
          <mxGeometry x="385.50217103424626" y="380.0035918700572" width="80" height="30" as="geometry" />
        </mxCell>
        <mxCell id="kkkl5rw_G0uq3lylavK_-25" value=".1" style="text;html=1;align=center;verticalAlign=middle;whiteSpace=wrap;rounded=0;rotation=0;strokeColor=none;fontColor=#000000;fillColor=none;" vertex="1" parent="1">
          <mxGeometry x="268.00000000000006" y="380" width="22.8" height="25.28" as="geometry" />
        </mxCell>
        <mxCell id="kkkl5rw_G0uq3lylavK_-26" value=".1" style="text;html=1;align=center;verticalAlign=middle;whiteSpace=wrap;rounded=0;rotation=0;strokeColor=none;fontColor=#000000;fillColor=none;" vertex="1" parent="1">
          <mxGeometry x="268" y="344.72" width="22.8" height="25.28" as="geometry" />
        </mxCell>
        <mxCell id="kkkl5rw_G0uq3lylavK_-27" value=".2" style="text;html=1;align=center;verticalAlign=middle;whiteSpace=wrap;rounded=0;rotation=0;strokeColor=none;fontColor=#000000;fillColor=none;" vertex="1" parent="1">
          <mxGeometry x="380" y="200" width="22.8" height="25.28" as="geometry" />
        </mxCell>
        <mxCell id="kkkl5rw_G0uq3lylavK_-28" value=".2" style="text;html=1;align=center;verticalAlign=middle;whiteSpace=wrap;rounded=0;rotation=0;strokeColor=none;fontColor=#000000;fillColor=none;" vertex="1" parent="1">
          <mxGeometry x="440" y="200" width="22.8" height="25.28" as="geometry" />
        </mxCell>
        <mxCell id="kkkl5rw_G0uq3lylavK_-29" value=".3" style="text;html=1;align=center;verticalAlign=middle;whiteSpace=wrap;rounded=0;rotation=0;strokeColor=none;fontColor=#000000;fillColor=none;" vertex="1" parent="1">
          <mxGeometry x="547.2" y="380" width="22.8" height="25.28" as="geometry" />
        </mxCell>
        <mxCell id="kkkl5rw_G0uq3lylavK_-30" value=".3" style="text;html=1;align=center;verticalAlign=middle;whiteSpace=wrap;rounded=0;rotation=0;strokeColor=none;fontColor=#000000;fillColor=none;" vertex="1" parent="1">
          <mxGeometry x="547.2" y="344.72" width="22.8" height="25.28" as="geometry" />
        </mxCell>
        <mxCell id="kkkl5rw_G0uq3lylavK_-33" value="R1" style="text;html=1;align=center;verticalAlign=middle;whiteSpace=wrap;rounded=0;" vertex="1" parent="1">
          <mxGeometry x="199" y="380" width="51" height="30" as="geometry" />
        </mxCell>
        <mxCell id="kkkl5rw_G0uq3lylavK_-34" value="R2" style="text;html=1;align=center;verticalAlign=middle;whiteSpace=wrap;rounded=0;" vertex="1" parent="1">
          <mxGeometry x="398.5" y="140" width="51" height="30" as="geometry" />
        </mxCell>
        <mxCell id="kkkl5rw_G0uq3lylavK_-35" value="R3" style="text;html=1;align=center;verticalAlign=middle;whiteSpace=wrap;rounded=0;" vertex="1" parent="1">
          <mxGeometry x="578" y="380" width="51" height="30" as="geometry" />
        </mxCell>
      </root>
    </mxGraphModel>
  </diagram>
</mxfile>
